<?xml version="1.0" encoding="UTF-8" standalone="no"?>
<!DOCTYPE svg PUBLIC "-//W3C//DTD SVG 1.1//EN"
 "http://www.w3.org/Graphics/SVG/1.1/DTD/svg11.dtd">
<!-- Generated by graphviz version 2.38.0 (20140413.2041)
 -->
<!-- Title: controllers_diagram Pages: 1 -->
<svg width="2616pt" height="225pt"
 viewBox="0.00 0.00 2615.53 225.00" xmlns="http://www.w3.org/2000/svg" xmlns:xlink="http://www.w3.org/1999/xlink">
<g id="graph0" class="graph" transform="scale(1 1) rotate(0) translate(4 221)">
<title>controllers_diagram</title>
<polygon fill="white" stroke="none" points="-4,4 -4,-221 2611.53,-221 2611.53,4 -4,4"/>
<!-- ApplicationController -->
<g id="node1" class="node"><title>ApplicationController</title>
<path fill="none" stroke="black" d="M12,-42.5C12,-42.5 127.642,-42.5 127.642,-42.5 133.642,-42.5 139.642,-48.5 139.642,-54.5 139.642,-54.5 139.642,-162.5 139.642,-162.5 139.642,-168.5 133.642,-174.5 127.642,-174.5 127.642,-174.5 12,-174.5 12,-174.5 6,-174.5 0,-168.5 0,-162.5 0,-162.5 0,-54.5 0,-54.5 0,-48.5 6,-42.5 12,-42.5"/>
<text text-anchor="middle" x="69.8208" y="-159.3" font-family="Times,serif" font-size="14.00">ApplicationController</text>
<polyline fill="none" stroke="black" points="0,-152.5 139.642,-152.5 "/>
<text text-anchor="start" x="8" y="-137.3" font-family="Times,serif" font-size="14.00">current_user</text>
<text text-anchor="start" x="8" y="-123.3" font-family="Times,serif" font-size="14.00">logged_in?</text>
<polyline fill="none" stroke="black" points="0,-116.5 139.642,-116.5 "/>
<polyline fill="none" stroke="black" points="0,-92.5 139.642,-92.5 "/>
<text text-anchor="start" x="8" y="-77.3" font-family="Times,serif" font-size="14.00">_layout</text>
<text text-anchor="start" x="8" y="-63.3" font-family="Times,serif" font-size="14.00">authenticate</text>
<text text-anchor="start" x="8" y="-49.3" font-family="Times,serif" font-size="14.00">current_ability</text>
</g>
<!-- ClassroomsController -->
<g id="node2" class="node"><title>ClassroomsController</title>
<path fill="none" stroke="black" d="M169.503,-14.5C169.503,-14.5 348.138,-14.5 348.138,-14.5 354.138,-14.5 360.138,-20.5 360.138,-26.5 360.138,-26.5 360.138,-190.5 360.138,-190.5 360.138,-196.5 354.138,-202.5 348.138,-202.5 348.138,-202.5 169.503,-202.5 169.503,-202.5 163.503,-202.5 157.503,-196.5 157.503,-190.5 157.503,-190.5 157.503,-26.5 157.503,-26.5 157.503,-20.5 163.503,-14.5 169.503,-14.5"/>
<text text-anchor="middle" x="258.821" y="-187.3" font-family="Times,serif" font-size="14.00">ClassroomsController</text>
<polyline fill="none" stroke="black" points="157.503,-180.5 360.138,-180.5 "/>
<text text-anchor="start" x="165.503" y="-165.3" font-family="Times,serif" font-size="14.00">_one_time_conditions_valid_28?</text>
<text text-anchor="start" x="165.503" y="-151.3" font-family="Times,serif" font-size="14.00">create</text>
<text text-anchor="start" x="165.503" y="-137.3" font-family="Times,serif" font-size="14.00">destroy</text>
<text text-anchor="start" x="165.503" y="-123.3" font-family="Times,serif" font-size="14.00">edit</text>
<text text-anchor="start" x="165.503" y="-109.3" font-family="Times,serif" font-size="14.00">index</text>
<text text-anchor="start" x="165.503" y="-95.3" font-family="Times,serif" font-size="14.00">new</text>
<text text-anchor="start" x="165.503" y="-81.3" font-family="Times,serif" font-size="14.00">show</text>
<text text-anchor="start" x="165.503" y="-67.3" font-family="Times,serif" font-size="14.00">update</text>
<polyline fill="none" stroke="black" points="157.503,-60.5 360.138,-60.5 "/>
<polyline fill="none" stroke="black" points="157.503,-36.5 360.138,-36.5 "/>
<text text-anchor="start" x="165.503" y="-21.3" font-family="Times,serif" font-size="14.00">_layout</text>
</g>
<!-- CohortsController -->
<g id="node3" class="node"><title>CohortsController</title>
<path fill="none" stroke="black" d="M390.503,-0.5C390.503,-0.5 569.138,-0.5 569.138,-0.5 575.138,-0.5 581.138,-6.5 581.138,-12.5 581.138,-12.5 581.138,-204.5 581.138,-204.5 581.138,-210.5 575.138,-216.5 569.138,-216.5 569.138,-216.5 390.503,-216.5 390.503,-216.5 384.503,-216.5 378.503,-210.5 378.503,-204.5 378.503,-204.5 378.503,-12.5 378.503,-12.5 378.503,-6.5 384.503,-0.5 390.503,-0.5"/>
<text text-anchor="middle" x="479.821" y="-201.3" font-family="Times,serif" font-size="14.00">CohortsController</text>
<polyline fill="none" stroke="black" points="378.503,-194.5 581.138,-194.5 "/>
<text text-anchor="start" x="386.503" y="-179.3" font-family="Times,serif" font-size="14.00">_callback_before_63</text>
<text text-anchor="start" x="386.503" y="-165.3" font-family="Times,serif" font-size="14.00">_one_time_conditions_valid_64?</text>
<text text-anchor="start" x="386.503" y="-151.3" font-family="Times,serif" font-size="14.00">create</text>
<text text-anchor="start" x="386.503" y="-137.3" font-family="Times,serif" font-size="14.00">destroy</text>
<text text-anchor="start" x="386.503" y="-123.3" font-family="Times,serif" font-size="14.00">edit</text>
<text text-anchor="start" x="386.503" y="-109.3" font-family="Times,serif" font-size="14.00">enroll</text>
<text text-anchor="start" x="386.503" y="-95.3" font-family="Times,serif" font-size="14.00">index</text>
<text text-anchor="start" x="386.503" y="-81.3" font-family="Times,serif" font-size="14.00">new</text>
<text text-anchor="start" x="386.503" y="-67.3" font-family="Times,serif" font-size="14.00">show</text>
<text text-anchor="start" x="386.503" y="-53.3" font-family="Times,serif" font-size="14.00">update</text>
<polyline fill="none" stroke="black" points="378.503,-46.5 581.138,-46.5 "/>
<polyline fill="none" stroke="black" points="378.503,-22.5 581.138,-22.5 "/>
<text text-anchor="start" x="386.503" y="-7.3" font-family="Times,serif" font-size="14.00">_layout</text>
</g>
<!-- CoursesController -->
<g id="node4" class="node"><title>CoursesController</title>
<path fill="none" stroke="black" d="M611.503,-14.5C611.503,-14.5 790.138,-14.5 790.138,-14.5 796.138,-14.5 802.138,-20.5 802.138,-26.5 802.138,-26.5 802.138,-190.5 802.138,-190.5 802.138,-196.5 796.138,-202.5 790.138,-202.5 790.138,-202.5 611.503,-202.5 611.503,-202.5 605.503,-202.5 599.503,-196.5 599.503,-190.5 599.503,-190.5 599.503,-26.5 599.503,-26.5 599.503,-20.5 605.503,-14.5 611.503,-14.5"/>
<text text-anchor="middle" x="700.821" y="-187.3" font-family="Times,serif" font-size="14.00">CoursesController</text>
<polyline fill="none" stroke="black" points="599.503,-180.5 802.138,-180.5 "/>
<text text-anchor="start" x="607.503" y="-165.3" font-family="Times,serif" font-size="14.00">_one_time_conditions_valid_82?</text>
<text text-anchor="start" x="607.503" y="-151.3" font-family="Times,serif" font-size="14.00">create</text>
<text text-anchor="start" x="607.503" y="-137.3" font-family="Times,serif" font-size="14.00">destroy</text>
<text text-anchor="start" x="607.503" y="-123.3" font-family="Times,serif" font-size="14.00">edit</text>
<text text-anchor="start" x="607.503" y="-109.3" font-family="Times,serif" font-size="14.00">index</text>
<text text-anchor="start" x="607.503" y="-95.3" font-family="Times,serif" font-size="14.00">new</text>
<text text-anchor="start" x="607.503" y="-81.3" font-family="Times,serif" font-size="14.00">show</text>
<text text-anchor="start" x="607.503" y="-67.3" font-family="Times,serif" font-size="14.00">update</text>
<polyline fill="none" stroke="black" points="599.503,-60.5 802.138,-60.5 "/>
<polyline fill="none" stroke="black" points="599.503,-36.5 802.138,-36.5 "/>
<text text-anchor="start" x="607.503" y="-21.3" font-family="Times,serif" font-size="14.00">_layout</text>
</g>
<!-- HistoriesController -->
<g id="node5" class="node"><title>HistoriesController</title>
<path fill="none" stroke="black" d="M831.772,-21.5C831.772,-21.5 931.869,-21.5 931.869,-21.5 937.869,-21.5 943.869,-27.5 943.869,-33.5 943.869,-33.5 943.869,-183.5 943.869,-183.5 943.869,-189.5 937.869,-195.5 931.869,-195.5 931.869,-195.5 831.772,-195.5 831.772,-195.5 825.772,-195.5 819.772,-189.5 819.772,-183.5 819.772,-183.5 819.772,-33.5 819.772,-33.5 819.772,-27.5 825.772,-21.5 831.772,-21.5"/>
<text text-anchor="middle" x="881.821" y="-180.3" font-family="Times,serif" font-size="14.00">HistoriesController</text>
<polyline fill="none" stroke="black" points="819.772,-173.5 943.869,-173.5 "/>
<text text-anchor="start" x="827.772" y="-158.3" font-family="Times,serif" font-size="14.00">create</text>
<text text-anchor="start" x="827.772" y="-144.3" font-family="Times,serif" font-size="14.00">destroy</text>
<text text-anchor="start" x="827.772" y="-130.3" font-family="Times,serif" font-size="14.00">edit</text>
<text text-anchor="start" x="827.772" y="-116.3" font-family="Times,serif" font-size="14.00">index</text>
<text text-anchor="start" x="827.772" y="-102.3" font-family="Times,serif" font-size="14.00">new</text>
<text text-anchor="start" x="827.772" y="-88.3" font-family="Times,serif" font-size="14.00">show</text>
<text text-anchor="start" x="827.772" y="-74.3" font-family="Times,serif" font-size="14.00">update</text>
<polyline fill="none" stroke="black" points="819.772,-67.5 943.869,-67.5 "/>
<polyline fill="none" stroke="black" points="819.772,-43.5 943.869,-43.5 "/>
<text text-anchor="start" x="827.772" y="-28.3" font-family="Times,serif" font-size="14.00">_layout</text>
</g>
<!-- HomeController -->
<g id="node6" class="node"><title>HomeController</title>
<path fill="none" stroke="black" d="M973.941,-63.5C973.941,-63.5 1057.7,-63.5 1057.7,-63.5 1063.7,-63.5 1069.7,-69.5 1069.7,-75.5 1069.7,-75.5 1069.7,-141.5 1069.7,-141.5 1069.7,-147.5 1063.7,-153.5 1057.7,-153.5 1057.7,-153.5 973.941,-153.5 973.941,-153.5 967.941,-153.5 961.941,-147.5 961.941,-141.5 961.941,-141.5 961.941,-75.5 961.941,-75.5 961.941,-69.5 967.941,-63.5 973.941,-63.5"/>
<text text-anchor="middle" x="1015.82" y="-138.3" font-family="Times,serif" font-size="14.00">HomeController</text>
<polyline fill="none" stroke="black" points="961.941,-131.5 1069.7,-131.5 "/>
<text text-anchor="start" x="969.941" y="-116.3" font-family="Times,serif" font-size="14.00">index</text>
<polyline fill="none" stroke="black" points="961.941,-109.5 1069.7,-109.5 "/>
<polyline fill="none" stroke="black" points="961.941,-85.5 1069.7,-85.5 "/>
<text text-anchor="start" x="969.941" y="-70.3" font-family="Times,serif" font-size="14.00">_layout</text>
</g>
<!-- LessonsController -->
<g id="node7" class="node"><title>LessonsController</title>
<path fill="none" stroke="black" d="M1100,-14.5C1100,-14.5 1285.64,-14.5 1285.64,-14.5 1291.64,-14.5 1297.64,-20.5 1297.64,-26.5 1297.64,-26.5 1297.64,-190.5 1297.64,-190.5 1297.64,-196.5 1291.64,-202.5 1285.64,-202.5 1285.64,-202.5 1100,-202.5 1100,-202.5 1094,-202.5 1088,-196.5 1088,-190.5 1088,-190.5 1088,-26.5 1088,-26.5 1088,-20.5 1094,-14.5 1100,-14.5"/>
<text text-anchor="middle" x="1192.82" y="-187.3" font-family="Times,serif" font-size="14.00">LessonsController</text>
<polyline fill="none" stroke="black" points="1088,-180.5 1297.64,-180.5 "/>
<text text-anchor="start" x="1096" y="-165.3" font-family="Times,serif" font-size="14.00">_one_time_conditions_valid_102?</text>
<text text-anchor="start" x="1096" y="-151.3" font-family="Times,serif" font-size="14.00">create</text>
<text text-anchor="start" x="1096" y="-137.3" font-family="Times,serif" font-size="14.00">destroy</text>
<text text-anchor="start" x="1096" y="-123.3" font-family="Times,serif" font-size="14.00">edit</text>
<text text-anchor="start" x="1096" y="-109.3" font-family="Times,serif" font-size="14.00">index</text>
<text text-anchor="start" x="1096" y="-95.3" font-family="Times,serif" font-size="14.00">new</text>
<text text-anchor="start" x="1096" y="-81.3" font-family="Times,serif" font-size="14.00">show</text>
<text text-anchor="start" x="1096" y="-67.3" font-family="Times,serif" font-size="14.00">update</text>
<polyline fill="none" stroke="black" points="1088,-60.5 1297.64,-60.5 "/>
<polyline fill="none" stroke="black" points="1088,-36.5 1297.64,-36.5 "/>
<text text-anchor="start" x="1096" y="-21.3" font-family="Times,serif" font-size="14.00">_layout</text>
</g>
<!-- LocationsController -->
<g id="node8" class="node"><title>LocationsController</title>
<path fill="none" stroke="black" d="M1328,-14.5C1328,-14.5 1513.64,-14.5 1513.64,-14.5 1519.64,-14.5 1525.64,-20.5 1525.64,-26.5 1525.64,-26.5 1525.64,-190.5 1525.64,-190.5 1525.64,-196.5 1519.64,-202.5 1513.64,-202.5 1513.64,-202.5 1328,-202.5 1328,-202.5 1322,-202.5 1316,-196.5 1316,-190.5 1316,-190.5 1316,-26.5 1316,-26.5 1316,-20.5 1322,-14.5 1328,-14.5"/>
<text text-anchor="middle" x="1420.82" y="-187.3" font-family="Times,serif" font-size="14.00">LocationsController</text>
<polyline fill="none" stroke="black" points="1316,-180.5 1525.64,-180.5 "/>
<text text-anchor="start" x="1324" y="-165.3" font-family="Times,serif" font-size="14.00">_one_time_conditions_valid_156?</text>
<text text-anchor="start" x="1324" y="-151.3" font-family="Times,serif" font-size="14.00">create</text>
<text text-anchor="start" x="1324" y="-137.3" font-family="Times,serif" font-size="14.00">destroy</text>
<text text-anchor="start" x="1324" y="-123.3" font-family="Times,serif" font-size="14.00">edit</text>
<text text-anchor="start" x="1324" y="-109.3" font-family="Times,serif" font-size="14.00">index</text>
<text text-anchor="start" x="1324" y="-95.3" font-family="Times,serif" font-size="14.00">new</text>
<text text-anchor="start" x="1324" y="-81.3" font-family="Times,serif" font-size="14.00">show</text>
<text text-anchor="start" x="1324" y="-67.3" font-family="Times,serif" font-size="14.00">update</text>
<polyline fill="none" stroke="black" points="1316,-60.5 1525.64,-60.5 "/>
<polyline fill="none" stroke="black" points="1316,-36.5 1525.64,-36.5 "/>
<text text-anchor="start" x="1324" y="-21.3" font-family="Times,serif" font-size="14.00">_layout</text>
</g>
<!-- ProfilesController -->
<g id="node9" class="node"><title>ProfilesController</title>
<path fill="none" stroke="black" d="M1555.66,-21.5C1555.66,-21.5 1647.99,-21.5 1647.99,-21.5 1653.99,-21.5 1659.99,-27.5 1659.99,-33.5 1659.99,-33.5 1659.99,-183.5 1659.99,-183.5 1659.99,-189.5 1653.99,-195.5 1647.99,-195.5 1647.99,-195.5 1555.66,-195.5 1555.66,-195.5 1549.66,-195.5 1543.66,-189.5 1543.66,-183.5 1543.66,-183.5 1543.66,-33.5 1543.66,-33.5 1543.66,-27.5 1549.66,-21.5 1555.66,-21.5"/>
<text text-anchor="middle" x="1601.82" y="-180.3" font-family="Times,serif" font-size="14.00">ProfilesController</text>
<polyline fill="none" stroke="black" points="1543.66,-173.5 1659.99,-173.5 "/>
<text text-anchor="start" x="1551.66" y="-158.3" font-family="Times,serif" font-size="14.00">create</text>
<text text-anchor="start" x="1551.66" y="-144.3" font-family="Times,serif" font-size="14.00">destroy</text>
<text text-anchor="start" x="1551.66" y="-130.3" font-family="Times,serif" font-size="14.00">edit</text>
<text text-anchor="start" x="1551.66" y="-116.3" font-family="Times,serif" font-size="14.00">index</text>
<text text-anchor="start" x="1551.66" y="-102.3" font-family="Times,serif" font-size="14.00">new</text>
<text text-anchor="start" x="1551.66" y="-88.3" font-family="Times,serif" font-size="14.00">show</text>
<text text-anchor="start" x="1551.66" y="-74.3" font-family="Times,serif" font-size="14.00">update</text>
<polyline fill="none" stroke="black" points="1543.66,-67.5 1659.99,-67.5 "/>
<polyline fill="none" stroke="black" points="1543.66,-43.5 1659.99,-43.5 "/>
<text text-anchor="start" x="1551.66" y="-28.3" font-family="Times,serif" font-size="14.00">_layout</text>
</g>
<!-- RolesController -->
<g id="node10" class="node"><title>RolesController</title>
<path fill="none" stroke="black" d="M1690,-14.5C1690,-14.5 1875.64,-14.5 1875.64,-14.5 1881.64,-14.5 1887.64,-20.5 1887.64,-26.5 1887.64,-26.5 1887.64,-190.5 1887.64,-190.5 1887.64,-196.5 1881.64,-202.5 1875.64,-202.5 1875.64,-202.5 1690,-202.5 1690,-202.5 1684,-202.5 1678,-196.5 1678,-190.5 1678,-190.5 1678,-26.5 1678,-26.5 1678,-20.5 1684,-14.5 1690,-14.5"/>
<text text-anchor="middle" x="1782.82" y="-187.3" font-family="Times,serif" font-size="14.00">RolesController</text>
<polyline fill="none" stroke="black" points="1678,-180.5 1887.64,-180.5 "/>
<text text-anchor="start" x="1686" y="-165.3" font-family="Times,serif" font-size="14.00">_one_time_conditions_valid_234?</text>
<text text-anchor="start" x="1686" y="-151.3" font-family="Times,serif" font-size="14.00">create</text>
<text text-anchor="start" x="1686" y="-137.3" font-family="Times,serif" font-size="14.00">destroy</text>
<text text-anchor="start" x="1686" y="-123.3" font-family="Times,serif" font-size="14.00">edit</text>
<text text-anchor="start" x="1686" y="-109.3" font-family="Times,serif" font-size="14.00">index</text>
<text text-anchor="start" x="1686" y="-95.3" font-family="Times,serif" font-size="14.00">new</text>
<text text-anchor="start" x="1686" y="-81.3" font-family="Times,serif" font-size="14.00">show</text>
<text text-anchor="start" x="1686" y="-67.3" font-family="Times,serif" font-size="14.00">update</text>
<polyline fill="none" stroke="black" points="1678,-60.5 1887.64,-60.5 "/>
<polyline fill="none" stroke="black" points="1678,-36.5 1887.64,-36.5 "/>
<text text-anchor="start" x="1686" y="-21.3" font-family="Times,serif" font-size="14.00">_layout</text>
</g>
<!-- SessionsController -->
<g id="node11" class="node"><title>SessionsController</title>
<path fill="none" stroke="black" d="M1917.93,-49.5C1917.93,-49.5 2015.71,-49.5 2015.71,-49.5 2021.71,-49.5 2027.71,-55.5 2027.71,-61.5 2027.71,-61.5 2027.71,-155.5 2027.71,-155.5 2027.71,-161.5 2021.71,-167.5 2015.71,-167.5 2015.71,-167.5 1917.93,-167.5 1917.93,-167.5 1911.93,-167.5 1905.93,-161.5 1905.93,-155.5 1905.93,-155.5 1905.93,-61.5 1905.93,-61.5 1905.93,-55.5 1911.93,-49.5 1917.93,-49.5"/>
<text text-anchor="middle" x="1966.82" y="-152.3" font-family="Times,serif" font-size="14.00">SessionsController</text>
<polyline fill="none" stroke="black" points="1905.93,-145.5 2027.71,-145.5 "/>
<text text-anchor="start" x="1913.93" y="-130.3" font-family="Times,serif" font-size="14.00">create</text>
<text text-anchor="start" x="1913.93" y="-116.3" font-family="Times,serif" font-size="14.00">destroy</text>
<text text-anchor="start" x="1913.93" y="-102.3" font-family="Times,serif" font-size="14.00">new</text>
<polyline fill="none" stroke="black" points="1905.93,-95.5 2027.71,-95.5 "/>
<polyline fill="none" stroke="black" points="1905.93,-71.5 2027.71,-71.5 "/>
<text text-anchor="start" x="1913.93" y="-56.3" font-family="Times,serif" font-size="14.00">_layout</text>
</g>
<!-- StatusesController -->
<g id="node12" class="node"><title>StatusesController</title>
<path fill="none" stroke="black" d="M2058,-14.5C2058,-14.5 2243.64,-14.5 2243.64,-14.5 2249.64,-14.5 2255.64,-20.5 2255.64,-26.5 2255.64,-26.5 2255.64,-190.5 2255.64,-190.5 2255.64,-196.5 2249.64,-202.5 2243.64,-202.5 2243.64,-202.5 2058,-202.5 2058,-202.5 2052,-202.5 2046,-196.5 2046,-190.5 2046,-190.5 2046,-26.5 2046,-26.5 2046,-20.5 2052,-14.5 2058,-14.5"/>
<text text-anchor="middle" x="2150.82" y="-187.3" font-family="Times,serif" font-size="14.00">StatusesController</text>
<polyline fill="none" stroke="black" points="2046,-180.5 2255.64,-180.5 "/>
<text text-anchor="start" x="2054" y="-165.3" font-family="Times,serif" font-size="14.00">_one_time_conditions_valid_264?</text>
<text text-anchor="start" x="2054" y="-151.3" font-family="Times,serif" font-size="14.00">create</text>
<text text-anchor="start" x="2054" y="-137.3" font-family="Times,serif" font-size="14.00">destroy</text>
<text text-anchor="start" x="2054" y="-123.3" font-family="Times,serif" font-size="14.00">edit</text>
<text text-anchor="start" x="2054" y="-109.3" font-family="Times,serif" font-size="14.00">index</text>
<text text-anchor="start" x="2054" y="-95.3" font-family="Times,serif" font-size="14.00">new</text>
<text text-anchor="start" x="2054" y="-81.3" font-family="Times,serif" font-size="14.00">show</text>
<text text-anchor="start" x="2054" y="-67.3" font-family="Times,serif" font-size="14.00">update</text>
<polyline fill="none" stroke="black" points="2046,-60.5 2255.64,-60.5 "/>
<polyline fill="none" stroke="black" points="2046,-36.5 2255.64,-36.5 "/>
<text text-anchor="start" x="2054" y="-21.3" font-family="Times,serif" font-size="14.00">_layout</text>
</g>
<!-- TutorialsController -->
<g id="node13" class="node"><title>TutorialsController</title>
<path fill="none" stroke="black" d="M2286,-14.5C2286,-14.5 2471.64,-14.5 2471.64,-14.5 2477.64,-14.5 2483.64,-20.5 2483.64,-26.5 2483.64,-26.5 2483.64,-190.5 2483.64,-190.5 2483.64,-196.5 2477.64,-202.5 2471.64,-202.5 2471.64,-202.5 2286,-202.5 2286,-202.5 2280,-202.5 2274,-196.5 2274,-190.5 2274,-190.5 2274,-26.5 2274,-26.5 2274,-20.5 2280,-14.5 2286,-14.5"/>
<text text-anchor="middle" x="2378.82" y="-187.3" font-family="Times,serif" font-size="14.00">TutorialsController</text>
<polyline fill="none" stroke="black" points="2274,-180.5 2483.64,-180.5 "/>
<text text-anchor="start" x="2282" y="-165.3" font-family="Times,serif" font-size="14.00">_one_time_conditions_valid_284?</text>
<text text-anchor="start" x="2282" y="-151.3" font-family="Times,serif" font-size="14.00">create</text>
<text text-anchor="start" x="2282" y="-137.3" font-family="Times,serif" font-size="14.00">destroy</text>
<text text-anchor="start" x="2282" y="-123.3" font-family="Times,serif" font-size="14.00">edit</text>
<text text-anchor="start" x="2282" y="-109.3" font-family="Times,serif" font-size="14.00">index</text>
<text text-anchor="start" x="2282" y="-95.3" font-family="Times,serif" font-size="14.00">new</text>
<text text-anchor="start" x="2282" y="-81.3" font-family="Times,serif" font-size="14.00">show</text>
<text text-anchor="start" x="2282" y="-67.3" font-family="Times,serif" font-size="14.00">update</text>
<polyline fill="none" stroke="black" points="2274,-60.5 2483.64,-60.5 "/>
<polyline fill="none" stroke="black" points="2274,-36.5 2483.64,-36.5 "/>
<text text-anchor="start" x="2282" y="-21.3" font-family="Times,serif" font-size="14.00">_layout</text>
</g>
<!-- UsersController -->
<g id="node14" class="node"><title>UsersController</title>
<path fill="none" stroke="black" d="M2514.11,-56.5C2514.11,-56.5 2595.53,-56.5 2595.53,-56.5 2601.53,-56.5 2607.53,-62.5 2607.53,-68.5 2607.53,-68.5 2607.53,-148.5 2607.53,-148.5 2607.53,-154.5 2601.53,-160.5 2595.53,-160.5 2595.53,-160.5 2514.11,-160.5 2514.11,-160.5 2508.11,-160.5 2502.11,-154.5 2502.11,-148.5 2502.11,-148.5 2502.11,-68.5 2502.11,-68.5 2502.11,-62.5 2508.11,-56.5 2514.11,-56.5"/>
<text text-anchor="middle" x="2554.82" y="-145.3" font-family="Times,serif" font-size="14.00">UsersController</text>
<polyline fill="none" stroke="black" points="2502.11,-138.5 2607.53,-138.5 "/>
<text text-anchor="start" x="2510.11" y="-123.3" font-family="Times,serif" font-size="14.00">create</text>
<text text-anchor="start" x="2510.11" y="-109.3" font-family="Times,serif" font-size="14.00">new</text>
<polyline fill="none" stroke="black" points="2502.11,-102.5 2607.53,-102.5 "/>
<polyline fill="none" stroke="black" points="2502.11,-78.5 2607.53,-78.5 "/>
<text text-anchor="start" x="2510.11" y="-63.3" font-family="Times,serif" font-size="14.00">_layout</text>
</g>
</g>
</svg>
