<?xml version="1.0" encoding="UTF-8" standalone="no"?>
<!DOCTYPE svg PUBLIC "-//W3C//DTD SVG 1.1//EN"
 "http://www.w3.org/Graphics/SVG/1.1/DTD/svg11.dtd">
<!-- Generated by graphviz version 2.38.0 (20140413.2041)
 -->
<!-- Title: models_diagram Pages: 1 -->
<svg width="991pt" height="758pt"
 viewBox="0.00 0.00 990.81 758.00" xmlns="http://www.w3.org/2000/svg" xmlns:xlink="http://www.w3.org/1999/xlink">
<g id="graph0" class="graph" transform="scale(1 1) rotate(0) translate(4 754)">
<title>models_diagram</title>
<polygon fill="white" stroke="none" points="-4,4 -4,-754 986.807,-754 986.807,4 -4,4"/>
<!-- Classroom -->
<g id="node1" class="node"><title>Classroom</title>
<path fill="none" stroke="black" d="M12,-221.5C12,-221.5 121.011,-221.5 121.011,-221.5 127.011,-221.5 133.011,-227.5 133.011,-233.5 133.011,-233.5 133.011,-365.5 133.011,-365.5 133.011,-371.5 127.011,-377.5 121.011,-377.5 121.011,-377.5 12,-377.5 12,-377.5 6,-377.5 0,-371.5 0,-365.5 0,-365.5 0,-233.5 0,-233.5 0,-227.5 6,-221.5 12,-221.5"/>
<text text-anchor="middle" x="66.5054" y="-362.3" font-family="Times,serif" font-size="14.00">Classroom</text>
<polyline fill="none" stroke="black" points="0,-355.5 133.011,-355.5 "/>
<text text-anchor="start" x="8" y="-340.3" font-family="Times,serif" font-size="14.00">id :integer</text>
<text text-anchor="start" x="8" y="-326.3" font-family="Times,serif" font-size="14.00">name :string</text>
<text text-anchor="start" x="8" y="-312.3" font-family="Times,serif" font-size="14.00">location_id :integer</text>
<text text-anchor="start" x="8" y="-298.3" font-family="Times,serif" font-size="14.00">projector :boolean</text>
<text text-anchor="start" x="8" y="-284.3" font-family="Times,serif" font-size="14.00">tables :integer</text>
<text text-anchor="start" x="8" y="-270.3" font-family="Times,serif" font-size="14.00">chairs :integer</text>
<text text-anchor="start" x="8" y="-256.3" font-family="Times,serif" font-size="14.00">chillout :boolean</text>
<text text-anchor="start" x="8" y="-242.3" font-family="Times,serif" font-size="14.00">created_at :datetime</text>
<text text-anchor="start" x="8" y="-228.3" font-family="Times,serif" font-size="14.00">updated_at :datetime</text>
</g>
<!-- Tutorial -->
<g id="node10" class="node"><title>Tutorial</title>
<path fill="none" stroke="black" d="M248.048,-0.5C248.048,-0.5 360.962,-0.5 360.962,-0.5 366.962,-0.5 372.962,-6.5 372.962,-12.5 372.962,-12.5 372.962,-158.5 372.962,-158.5 372.962,-164.5 366.962,-170.5 360.962,-170.5 360.962,-170.5 248.048,-170.5 248.048,-170.5 242.048,-170.5 236.048,-164.5 236.048,-158.5 236.048,-158.5 236.048,-12.5 236.048,-12.5 236.048,-6.5 242.048,-0.5 248.048,-0.5"/>
<text text-anchor="middle" x="304.505" y="-155.3" font-family="Times,serif" font-size="14.00">Tutorial</text>
<polyline fill="none" stroke="black" points="236.048,-148.5 372.962,-148.5 "/>
<text text-anchor="start" x="244.048" y="-133.3" font-family="Times,serif" font-size="14.00">id :integer</text>
<text text-anchor="start" x="244.048" y="-119.3" font-family="Times,serif" font-size="14.00">name :string</text>
<text text-anchor="start" x="244.048" y="-105.3" font-family="Times,serif" font-size="14.00">status_id :integer</text>
<text text-anchor="start" x="244.048" y="-91.3" font-family="Times,serif" font-size="14.00">timerquired :integer</text>
<text text-anchor="start" x="244.048" y="-77.3" font-family="Times,serif" font-size="14.00">cohort_id :string</text>
<text text-anchor="start" x="244.048" y="-63.3" font-family="Times,serif" font-size="14.00">subject :string</text>
<text text-anchor="start" x="244.048" y="-49.3" font-family="Times,serif" font-size="14.00">created_at :datetime</text>
<text text-anchor="start" x="244.048" y="-35.3" font-family="Times,serif" font-size="14.00">updated_at :datetime</text>
<text text-anchor="start" x="244.048" y="-21.3" font-family="Times,serif" font-size="14.00">classroom_id :integer</text>
<text text-anchor="start" x="244.048" y="-7.3" font-family="Times,serif" font-size="14.00">location_id :integer</text>
</g>
<!-- Classroom&#45;&gt;Tutorial -->
<g id="edge1" class="edge"><title>Classroom&#45;&gt;Tutorial</title>
<path fill="none" stroke="#d2d4d2" d="M133.99,-215.377C136.814,-212.502 139.658,-209.699 142.505,-207 168.555,-182.31 199.683,-158.094 227.659,-137.921"/>
<ellipse fill="none" stroke="#d2d4d2" cx="130.996" cy="-218.49" rx="4.00002" ry="4.00002"/>
<polygon fill="#d2d4d2" stroke="#d2d4d2" points="227.709,-137.886 238.461,-135.73 231.776,-134.978 235.844,-132.069 235.844,-132.069 235.844,-132.069 231.776,-134.978 233.226,-128.409 227.709,-137.886 227.709,-137.886"/>
</g>
<!-- Cohort -->
<g id="node2" class="node"><title>Cohort</title>
<path fill="none" stroke="black" d="M307,-428.5C307,-428.5 416.011,-428.5 416.011,-428.5 422.011,-428.5 428.011,-434.5 428.011,-440.5 428.011,-440.5 428.011,-572.5 428.011,-572.5 428.011,-578.5 422.011,-584.5 416.011,-584.5 416.011,-584.5 307,-584.5 307,-584.5 301,-584.5 295,-578.5 295,-572.5 295,-572.5 295,-440.5 295,-440.5 295,-434.5 301,-428.5 307,-428.5"/>
<text text-anchor="middle" x="361.505" y="-569.3" font-family="Times,serif" font-size="14.00">Cohort</text>
<polyline fill="none" stroke="black" points="295,-562.5 428.011,-562.5 "/>
<text text-anchor="start" x="303" y="-547.3" font-family="Times,serif" font-size="14.00">id :integer</text>
<text text-anchor="start" x="303" y="-533.3" font-family="Times,serif" font-size="14.00">name :string</text>
<text text-anchor="start" x="303" y="-519.3" font-family="Times,serif" font-size="14.00">location_id :integer</text>
<text text-anchor="start" x="303" y="-505.3" font-family="Times,serif" font-size="14.00">start_date :date</text>
<text text-anchor="start" x="303" y="-491.3" font-family="Times,serif" font-size="14.00">end_date :date</text>
<text text-anchor="start" x="303" y="-477.3" font-family="Times,serif" font-size="14.00">course_id :integer</text>
<text text-anchor="start" x="303" y="-463.3" font-family="Times,serif" font-size="14.00">status_id :integer</text>
<text text-anchor="start" x="303" y="-449.3" font-family="Times,serif" font-size="14.00">created_at :datetime</text>
<text text-anchor="start" x="303" y="-435.3" font-family="Times,serif" font-size="14.00">updated_at :datetime</text>
</g>
<!-- Profile -->
<g id="node7" class="node"><title>Profile</title>
<path fill="none" stroke="black" d="M163.152,-207.5C163.152,-207.5 325.859,-207.5 325.859,-207.5 331.859,-207.5 337.859,-213.5 337.859,-219.5 337.859,-219.5 337.859,-379.5 337.859,-379.5 337.859,-385.5 331.859,-391.5 325.859,-391.5 325.859,-391.5 163.152,-391.5 163.152,-391.5 157.152,-391.5 151.152,-385.5 151.152,-379.5 151.152,-379.5 151.152,-219.5 151.152,-219.5 151.152,-213.5 157.152,-207.5 163.152,-207.5"/>
<text text-anchor="middle" x="244.505" y="-376.3" font-family="Times,serif" font-size="14.00">Profile</text>
<polyline fill="none" stroke="black" points="151.152,-369.5 337.859,-369.5 "/>
<text text-anchor="start" x="159.152" y="-354.3" font-family="Times,serif" font-size="14.00">id :integer</text>
<text text-anchor="start" x="159.152" y="-340.3" font-family="Times,serif" font-size="14.00">name :string</text>
<text text-anchor="start" x="159.152" y="-326.3" font-family="Times,serif" font-size="14.00">role_id :integer</text>
<text text-anchor="start" x="159.152" y="-312.3" font-family="Times,serif" font-size="14.00">picture :string</text>
<text text-anchor="start" x="159.152" y="-298.3" font-family="Times,serif" font-size="14.00">location_id :integer</text>
<text text-anchor="start" x="159.152" y="-284.3" font-family="Times,serif" font-size="14.00">created_at :datetime</text>
<text text-anchor="start" x="159.152" y="-270.3" font-family="Times,serif" font-size="14.00">updated_at :datetime</text>
<text text-anchor="start" x="159.152" y="-256.3" font-family="Times,serif" font-size="14.00">password :string</text>
<text text-anchor="start" x="159.152" y="-242.3" font-family="Times,serif" font-size="14.00">password_confirmation :string</text>
<text text-anchor="start" x="159.152" y="-228.3" font-family="Times,serif" font-size="14.00">email :string</text>
<text text-anchor="start" x="159.152" y="-214.3" font-family="Times,serif" font-size="14.00">password_digest :string</text>
</g>
<!-- Cohort&#45;&gt;Profile -->
<g id="edge3" class="edge"><title>Cohort&#45;&gt;Profile</title>
<path fill="none" stroke="#cb708b" d="M312.454,-419.556C308.853,-413.246 305.202,-406.85 301.559,-400.466"/>
<polygon fill="#cb708b" stroke="#cb708b" points="312.483,-419.605 313.531,-430.521 314.961,-423.948 317.439,-428.29 317.439,-428.29 317.439,-428.29 314.961,-423.948 321.348,-426.06 312.483,-419.605 312.483,-419.605"/>
<polygon fill="#cb708b" stroke="#cb708b" points="301.558,-400.465 300.51,-389.549 299.08,-396.122 296.602,-391.78 296.602,-391.78 296.602,-391.78 299.08,-396.122 292.693,-394.01 301.558,-400.465 301.558,-400.465"/>
</g>
<!-- Cohort&#45;&gt;Tutorial -->
<g id="edge2" class="edge"><title>Cohort&#45;&gt;Tutorial</title>
<path fill="none" stroke="#0d61bb" d="M363.63,-420.063C363.569,-359.946 360.345,-277.892 346.505,-207 344.791,-198.217 342.572,-189.207 340.05,-180.258"/>
<ellipse fill="none" stroke="#0d61bb" cx="363.624" cy="-424.397" rx="4" ry="4"/>
<polygon fill="#0d61bb" stroke="#0d61bb" points="340.027,-180.18 341.522,-169.316 338.616,-175.383 337.205,-170.586 337.205,-170.586 337.205,-170.586 338.616,-175.383 332.888,-171.857 340.027,-180.18 340.027,-180.18"/>
</g>
<!-- Course -->
<g id="node3" class="node"><title>Course</title>
<path fill="none" stroke="black" d="M497,-442.5C497,-442.5 606.011,-442.5 606.011,-442.5 612.011,-442.5 618.011,-448.5 618.011,-454.5 618.011,-454.5 618.011,-558.5 618.011,-558.5 618.011,-564.5 612.011,-570.5 606.011,-570.5 606.011,-570.5 497,-570.5 497,-570.5 491,-570.5 485,-564.5 485,-558.5 485,-558.5 485,-454.5 485,-454.5 485,-448.5 491,-442.5 497,-442.5"/>
<text text-anchor="middle" x="551.505" y="-555.3" font-family="Times,serif" font-size="14.00">Course</text>
<polyline fill="none" stroke="black" points="485,-548.5 618.011,-548.5 "/>
<text text-anchor="start" x="493" y="-533.3" font-family="Times,serif" font-size="14.00">id :integer</text>
<text text-anchor="start" x="493" y="-519.3" font-family="Times,serif" font-size="14.00">name :string</text>
<text text-anchor="start" x="493" y="-505.3" font-family="Times,serif" font-size="14.00">description :text</text>
<text text-anchor="start" x="493" y="-491.3" font-family="Times,serif" font-size="14.00">outcome :text</text>
<text text-anchor="start" x="493" y="-477.3" font-family="Times,serif" font-size="14.00">status_id :integer</text>
<text text-anchor="start" x="493" y="-463.3" font-family="Times,serif" font-size="14.00">created_at :datetime</text>
<text text-anchor="start" x="493" y="-449.3" font-family="Times,serif" font-size="14.00">updated_at :datetime</text>
</g>
<!-- Lesson -->
<g id="node5" class="node"><title>Lesson</title>
<path fill="none" stroke="black" d="M543.614,-235.5C543.614,-235.5 653.397,-235.5 653.397,-235.5 659.397,-235.5 665.397,-241.5 665.397,-247.5 665.397,-247.5 665.397,-351.5 665.397,-351.5 665.397,-357.5 659.397,-363.5 653.397,-363.5 653.397,-363.5 543.614,-363.5 543.614,-363.5 537.614,-363.5 531.614,-357.5 531.614,-351.5 531.614,-351.5 531.614,-247.5 531.614,-247.5 531.614,-241.5 537.614,-235.5 543.614,-235.5"/>
<text text-anchor="middle" x="598.505" y="-348.3" font-family="Times,serif" font-size="14.00">Lesson</text>
<polyline fill="none" stroke="black" points="531.614,-341.5 665.397,-341.5 "/>
<text text-anchor="start" x="539.614" y="-326.3" font-family="Times,serif" font-size="14.00">id :integer</text>
<text text-anchor="start" x="539.614" y="-312.3" font-family="Times,serif" font-size="14.00">name :string</text>
<text text-anchor="start" x="539.614" y="-298.3" font-family="Times,serif" font-size="14.00">subject :string</text>
<text text-anchor="start" x="539.614" y="-284.3" font-family="Times,serif" font-size="14.00">timerequired :integer</text>
<text text-anchor="start" x="539.614" y="-270.3" font-family="Times,serif" font-size="14.00">status_id :integer</text>
<text text-anchor="start" x="539.614" y="-256.3" font-family="Times,serif" font-size="14.00">created_at :datetime</text>
<text text-anchor="start" x="539.614" y="-242.3" font-family="Times,serif" font-size="14.00">updated_at :datetime</text>
</g>
<!-- Course&#45;&gt;Lesson -->
<g id="edge4" class="edge"><title>Course&#45;&gt;Lesson</title>
<path fill="none" stroke="#ad6edd" d="M568.24,-432.509C572.621,-413.398 577.346,-392.791 581.73,-373.671"/>
<polygon fill="#ad6edd" stroke="#ad6edd" points="568.225,-432.573 561.604,-441.315 567.108,-437.447 565.99,-442.321 565.99,-442.321 565.99,-442.321 567.108,-437.447 570.377,-443.326 568.225,-432.573 568.225,-432.573"/>
<polygon fill="#ad6edd" stroke="#ad6edd" points="581.752,-373.571 588.373,-364.829 582.87,-368.697 583.987,-363.824 583.987,-363.824 583.987,-363.824 582.87,-368.697 579.601,-362.818 581.752,-373.571 581.752,-373.571"/>
</g>
<!-- History -->
<g id="node4" class="node"><title>History</title>
<path fill="none" stroke="black" d="M695,-621.5C695,-621.5 804.011,-621.5 804.011,-621.5 810.011,-621.5 816.011,-627.5 816.011,-633.5 816.011,-633.5 816.011,-737.5 816.011,-737.5 816.011,-743.5 810.011,-749.5 804.011,-749.5 804.011,-749.5 695,-749.5 695,-749.5 689,-749.5 683,-743.5 683,-737.5 683,-737.5 683,-633.5 683,-633.5 683,-627.5 689,-621.5 695,-621.5"/>
<text text-anchor="middle" x="749.505" y="-734.3" font-family="Times,serif" font-size="14.00">History</text>
<polyline fill="none" stroke="black" points="683,-727.5 816.011,-727.5 "/>
<text text-anchor="start" x="691" y="-712.3" font-family="Times,serif" font-size="14.00">id :integer</text>
<text text-anchor="start" x="691" y="-698.3" font-family="Times,serif" font-size="14.00">p_id :integer</text>
<text text-anchor="start" x="691" y="-684.3" font-family="Times,serif" font-size="14.00">st_id :integer</text>
<text text-anchor="start" x="691" y="-670.3" font-family="Times,serif" font-size="14.00">t_id :integer</text>
<text text-anchor="start" x="691" y="-656.3" font-family="Times,serif" font-size="14.00">c_id :integer</text>
<text text-anchor="start" x="691" y="-642.3" font-family="Times,serif" font-size="14.00">created_at :datetime</text>
<text text-anchor="start" x="691" y="-628.3" font-family="Times,serif" font-size="14.00">updated_at :datetime</text>
</g>
<!-- Location -->
<g id="node6" class="node"><title>Location</title>
<path fill="none" stroke="black" d="M184,-642.5C184,-642.5 293.011,-642.5 293.011,-642.5 299.011,-642.5 305.011,-648.5 305.011,-654.5 305.011,-654.5 305.011,-716.5 305.011,-716.5 305.011,-722.5 299.011,-728.5 293.011,-728.5 293.011,-728.5 184,-728.5 184,-728.5 178,-728.5 172,-722.5 172,-716.5 172,-716.5 172,-654.5 172,-654.5 172,-648.5 178,-642.5 184,-642.5"/>
<text text-anchor="middle" x="238.505" y="-713.3" font-family="Times,serif" font-size="14.00">Location</text>
<polyline fill="none" stroke="black" points="172,-706.5 305.011,-706.5 "/>
<text text-anchor="start" x="180" y="-691.3" font-family="Times,serif" font-size="14.00">id :integer</text>
<text text-anchor="start" x="180" y="-677.3" font-family="Times,serif" font-size="14.00">name :string</text>
<text text-anchor="start" x="180" y="-663.3" font-family="Times,serif" font-size="14.00">created_at :datetime</text>
<text text-anchor="start" x="180" y="-649.3" font-family="Times,serif" font-size="14.00">updated_at :datetime</text>
</g>
<!-- Location&#45;&gt;Classroom -->
<g id="edge6" class="edge"><title>Location&#45;&gt;Classroom</title>
<path fill="none" stroke="#ad3d44" d="M165.329,-641.909C144.857,-626.515 124.636,-607.332 111.505,-585 76.4632,-525.404 66.1456,-447.203 64.0678,-387.873"/>
<ellipse fill="none" stroke="#ad3d44" cx="168.749" cy="-644.412" rx="4.00002" ry="4.00002"/>
<polygon fill="#ad3d44" stroke="#ad3d44" points="64.065,-387.769 68.2849,-377.647 63.9258,-382.771 63.7867,-377.773 63.7867,-377.773 63.7867,-377.773 63.9258,-382.771 59.2884,-377.898 64.065,-387.769 64.065,-387.769"/>
</g>
<!-- Location&#45;&gt;Cohort -->
<g id="edge8" class="edge"><title>Location&#45;&gt;Cohort</title>
<path fill="none" stroke="#cd257d" d="M272.572,-635.478C281.739,-622.286 291.928,-607.623 302.045,-593.065"/>
<ellipse fill="none" stroke="#cd257d" cx="270.25" cy="-638.819" rx="4.00002" ry="4.00002"/>
<polygon fill="#cd257d" stroke="#cd257d" points="302.278,-592.73 311.68,-587.086 305.131,-588.624 307.984,-584.518 307.984,-584.518 307.984,-584.518 305.131,-588.624 304.289,-581.95 302.278,-592.73 302.278,-592.73"/>
</g>
<!-- Location&#45;&gt;Profile -->
<g id="edge5" class="edge"><title>Location&#45;&gt;Profile</title>
<path fill="none" stroke="#d7b1c2" d="M172.322,-636.638C157.035,-621.96 142.825,-604.475 134.505,-585 107.092,-520.833 110.191,-493.404 134.505,-428 138.057,-418.448 142.68,-409.133 148.018,-400.167"/>
<ellipse fill="none" stroke="#d7b1c2" cx="175.525" cy="-639.612" rx="4.00002" ry="4.00002"/>
<polygon fill="#d7b1c2" stroke="#d7b1c2" points="148.028,-400.153 157.155,-394.075 150.686,-395.918 153.344,-391.683 153.344,-391.683 153.344,-391.683 150.686,-395.918 149.532,-389.291 148.028,-400.153 148.028,-400.153"/>
</g>
<!-- Location&#45;&gt;Tutorial -->
<g id="edge7" class="edge"><title>Location&#45;&gt;Tutorial</title>
<path fill="none" stroke="#be82e4" d="M312.988,-668.082C357.455,-654.033 410.398,-628.86 437.505,-585 516.058,-457.899 435.77,-284.78 370.291,-179.58"/>
<ellipse fill="none" stroke="#be82e4" cx="308.904" cy="-669.327" rx="4.00001" ry="4.00001"/>
<polygon fill="#be82e4" stroke="#be82e4" points="370.136,-179.333 368.616,-168.473 367.472,-175.102 364.808,-170.871 364.808,-170.871 364.808,-170.871 367.472,-175.102 361,-173.269 370.136,-179.333 370.136,-179.333"/>
</g>
<!-- Profile&#45;&gt;Tutorial -->
<g id="edge9" class="edge"><title>Profile&#45;&gt;Tutorial</title>
<path fill="none" stroke="#511463" d="M273.07,-197.57C274.712,-191.77 276.359,-185.95 277.992,-180.179"/>
<polygon fill="#511463" stroke="#511463" points="273.022,-197.741 265.969,-206.137 271.661,-202.552 270.299,-207.363 270.299,-207.363 270.299,-207.363 271.661,-202.552 274.629,-208.588 273.022,-197.741 273.022,-197.741"/>
<polygon fill="#511463" stroke="#511463" points="278.001,-180.148 285.054,-171.751 279.363,-175.337 280.724,-170.526 280.724,-170.526 280.724,-170.526 279.363,-175.337 276.395,-169.3 278.001,-180.148 278.001,-180.148"/>
</g>
<!-- Role -->
<g id="node8" class="node"><title>Role</title>
<path fill="none" stroke="black" d="M156,-463.5C156,-463.5 265.011,-463.5 265.011,-463.5 271.011,-463.5 277.011,-469.5 277.011,-475.5 277.011,-475.5 277.011,-537.5 277.011,-537.5 277.011,-543.5 271.011,-549.5 265.011,-549.5 265.011,-549.5 156,-549.5 156,-549.5 150,-549.5 144,-543.5 144,-537.5 144,-537.5 144,-475.5 144,-475.5 144,-469.5 150,-463.5 156,-463.5"/>
<text text-anchor="middle" x="210.505" y="-534.3" font-family="Times,serif" font-size="14.00">Role</text>
<polyline fill="none" stroke="black" points="144,-527.5 277.011,-527.5 "/>
<text text-anchor="start" x="152" y="-512.3" font-family="Times,serif" font-size="14.00">id :integer</text>
<text text-anchor="start" x="152" y="-498.3" font-family="Times,serif" font-size="14.00">name :string</text>
<text text-anchor="start" x="152" y="-484.3" font-family="Times,serif" font-size="14.00">created_at :datetime</text>
<text text-anchor="start" x="152" y="-470.3" font-family="Times,serif" font-size="14.00">updated_at :datetime</text>
</g>
<!-- Role&#45;&gt;Profile -->
<g id="edge10" class="edge"><title>Role&#45;&gt;Profile</title>
<path fill="none" stroke="#2cd5a9" d="M218.879,-455.014C221.577,-438.746 224.669,-420.101 227.751,-401.521"/>
<ellipse fill="none" stroke="#2cd5a9" cx="218.205" cy="-459.078" rx="4.00001" ry="4.00001"/>
<polygon fill="#2cd5a9" stroke="#2cd5a9" points="227.773,-401.389 233.848,-392.26 228.591,-396.456 229.409,-391.523 229.409,-391.523 229.409,-391.523 228.591,-396.456 224.969,-390.787 227.773,-401.389 227.773,-401.389"/>
</g>
<!-- Status -->
<g id="node9" class="node"><title>Status</title>
<path fill="none" stroke="black" d="M544,-635.5C544,-635.5 653.011,-635.5 653.011,-635.5 659.011,-635.5 665.011,-641.5 665.011,-647.5 665.011,-647.5 665.011,-723.5 665.011,-723.5 665.011,-729.5 659.011,-735.5 653.011,-735.5 653.011,-735.5 544,-735.5 544,-735.5 538,-735.5 532,-729.5 532,-723.5 532,-723.5 532,-647.5 532,-647.5 532,-641.5 538,-635.5 544,-635.5"/>
<text text-anchor="middle" x="598.505" y="-720.3" font-family="Times,serif" font-size="14.00">Status</text>
<polyline fill="none" stroke="black" points="532,-713.5 665.011,-713.5 "/>
<text text-anchor="start" x="540" y="-698.3" font-family="Times,serif" font-size="14.00">id :integer</text>
<text text-anchor="start" x="540" y="-684.3" font-family="Times,serif" font-size="14.00">thing :string</text>
<text text-anchor="start" x="540" y="-670.3" font-family="Times,serif" font-size="14.00">statusname :string</text>
<text text-anchor="start" x="540" y="-656.3" font-family="Times,serif" font-size="14.00">created_at :datetime</text>
<text text-anchor="start" x="540" y="-642.3" font-family="Times,serif" font-size="14.00">updated_at :datetime</text>
</g>
<!-- Status&#45;&gt;Course -->
<g id="edge11" class="edge"><title>Status&#45;&gt;Course</title>
<path fill="none" stroke="#08d1b3" d="M583.259,-627.085C579.343,-612.334 575.076,-596.264 570.977,-580.829"/>
<ellipse fill="none" stroke="#08d1b3" cx="584.387" cy="-631.33" rx="4.00001" ry="4.00001"/>
<polygon fill="#08d1b3" stroke="#08d1b3" points="570.88,-580.463 572.663,-569.643 569.596,-575.63 568.313,-570.798 568.313,-570.798 568.313,-570.798 569.596,-575.63 563.964,-571.953 570.88,-580.463 570.88,-580.463"/>
</g>
<!-- Status&#45;&gt;Lesson -->
<g id="edge12" class="edge"><title>Status&#45;&gt;Lesson</title>
<path fill="none" stroke="#101906" d="M618.169,-627.318C622.041,-613.618 625.518,-598.922 627.505,-585 637.367,-515.923 635.292,-497.342 627.505,-428 625.515,-410.274 622.014,-391.417 618.118,-373.794"/>
<ellipse fill="none" stroke="#101906" cx="616.973" cy="-631.415" rx="4.00001" ry="4.00001"/>
<polygon fill="#101906" stroke="#101906" points="618.011,-373.327 620.173,-362.576 616.899,-368.452 615.786,-363.578 615.786,-363.578 615.786,-363.578 616.899,-368.452 611.399,-364.579 618.011,-373.327 618.011,-373.327"/>
</g>
<!-- User -->
<g id="node11" class="node"><title>User</title>
<path fill="none" stroke="black" d="M846.204,-628.5C846.204,-628.5 970.807,-628.5 970.807,-628.5 976.807,-628.5 982.807,-634.5 982.807,-640.5 982.807,-640.5 982.807,-730.5 982.807,-730.5 982.807,-736.5 976.807,-742.5 970.807,-742.5 970.807,-742.5 846.204,-742.5 846.204,-742.5 840.204,-742.5 834.204,-736.5 834.204,-730.5 834.204,-730.5 834.204,-640.5 834.204,-640.5 834.204,-634.5 840.204,-628.5 846.204,-628.5"/>
<text text-anchor="middle" x="908.505" y="-727.3" font-family="Times,serif" font-size="14.00">User</text>
<polyline fill="none" stroke="black" points="834.204,-720.5 982.807,-720.5 "/>
<text text-anchor="start" x="842.204" y="-705.3" font-family="Times,serif" font-size="14.00">id :integer</text>
<text text-anchor="start" x="842.204" y="-691.3" font-family="Times,serif" font-size="14.00">email :string</text>
<text text-anchor="start" x="842.204" y="-677.3" font-family="Times,serif" font-size="14.00">password_digest :string</text>
<text text-anchor="start" x="842.204" y="-663.3" font-family="Times,serif" font-size="14.00">created_at :datetime</text>
<text text-anchor="start" x="842.204" y="-649.3" font-family="Times,serif" font-size="14.00">updated_at :datetime</text>
<text text-anchor="start" x="842.204" y="-635.3" font-family="Times,serif" font-size="14.00">role :string</text>
</g>
</g>
</svg>
